<svg width="24" height="24" viewBox="0 0 24 24" fill="none" xmlns="http://www.w3.org/2000/svg">
<path d="M11.9171 1.43335C12.0867 1.43347 12.2493 1.50093 12.3693 1.62085C12.4892 1.74079 12.5567 1.90341 12.5568 2.073V3.15308L12.7745 3.1814C14.4562 3.39625 16.0016 4.21806 17.1202 5.49194C18.2389 6.76583 18.854 8.40404 18.8497 10.0994V13.4031L18.8507 13.4119C18.9361 14.5633 19.2513 15.6859 19.7775 16.7136L19.7833 16.7253L19.7902 16.7361C20.2699 17.478 20.8474 18.152 21.507 18.74L21.5079 18.741C21.5524 18.78 21.588 18.8287 21.6124 18.8826C21.6368 18.9363 21.6494 18.9944 21.6495 19.0535V19.9597C21.6495 20.0702 21.6056 20.1765 21.5275 20.2546C21.4494 20.3326 21.3438 20.3767 21.2335 20.3767H2.70032C2.58982 20.3767 2.48353 20.3328 2.4054 20.2546C2.32725 20.1765 2.28333 20.0702 2.28333 19.9597V19.0535L2.29309 18.9656C2.29929 18.9371 2.30836 18.9093 2.32043 18.8826C2.34486 18.8287 2.38048 18.78 2.42493 18.741L2.42786 18.738C3.07775 18.1483 3.64597 17.4744 4.11731 16.7341L4.12415 16.7244L4.12903 16.7136C4.6552 15.6859 4.97036 14.5633 5.05579 13.4119L5.05676 13.4031V10.0994C5.05341 8.41706 5.65998 6.79078 6.76379 5.52124C7.86771 4.25168 9.39414 3.42447 11.0607 3.19409L11.2765 3.16479V2.073C11.2766 1.90343 11.3441 1.74078 11.464 1.62085C11.584 1.50083 11.7474 1.43335 11.9171 1.43335ZM11.9698 3.82593C11.1546 3.82595 10.3473 3.99001 9.5968 4.30835C8.8463 4.62671 8.16734 5.09332 7.60071 5.67944C7.03421 6.2655 6.59171 6.95975 6.29895 7.72046C6.0062 8.48127 5.86908 9.29343 5.89661 10.1082V13.3933C5.81626 14.7128 5.45171 15.999 4.8302 17.1658C4.38129 17.8756 3.85015 18.5303 3.24622 19.114L2.80188 19.5437H21.1388L20.6935 19.114C20.0894 18.5302 19.5575 17.8758 19.1085 17.1658C18.563 16.1416 18.2169 15.0248 18.0861 13.8748L18.0431 13.3787V10.1082C18.0706 9.29343 17.9345 8.48127 17.6417 7.72046C17.3489 6.9596 16.9056 6.26559 16.339 5.67944C15.7723 5.09327 15.0935 4.62671 14.3429 4.30835C13.5923 3.99001 12.7851 3.82593 11.9698 3.82593Z" fill="white" stroke="white" stroke-width="0.5"/>
<path d="M12 22.8534C12.42 22.8437 12.823 22.6858 13.1378 22.4077C13.4525 22.1295 13.6588 21.749 13.72 21.3334H10.2134C10.2764 21.7602 10.4923 22.1497 10.8209 22.4293C11.1496 22.7089 11.5686 22.8596 12 22.8534Z" fill="white"/>
</svg>
